<svg version="1.2" xmlns="http://www.w3.org/2000/svg" viewBox="0 0 1080 1080" width="1080" height="1080">
	<style>
		.s0 { fill: #000000 } 
		.s1 { fill: #ff3600 } 
	</style>
	<g>
		<path class="s0" d="m454 394v35h43 43v-8.5-8.5h-35.5-35.5v-19.5-19.5h45.2 45.1l-0.6 50.2c-0.4 27.7-0.7 85.7-0.7 129v78.8h-14.4c-21.7 0-35.3-3.2-53.1-12.3-16.2-8.4-33.5-24.1-44.3-40.3-6.8-10.1-15.4-27.7-18.4-37.6l-2.3-7.8h-7.8c-7.5 0-7.7 0.1-7.3 2.2 3 14.6 4.3 19.5 6.8 26.8 10.9 30.9 35.4 58.7 64.8 73.5 19.9 10 36.2 13.8 59 13.8 22.8 0 39.1-3.8 59-13.8 17.5-8.8 36.7-25.3 48.2-41.6 5.4-7.6 13.6-23.5 17-32.9l2.3-6.5 0.3-63.8 0.3-63.7h32.9 33v-34-34h-40.5-40.5v7 7h34 34v19.5 19.5h-35.5-35.5v67.8 67.8l-2.4 7c-3.1 9.2-8.9 20.5-14.1 27.9-9.6 13.3-29.1 29-47 37.7l-8 3.9-0.3-132.6-0.2-132.5h-62-62z"/>
		<path class="s1" d="m400 498v10h32 32v10.2c0.1 13.5 1.9 21.3 7.4 32.4 4.8 9.3 8.7 14.6 16.6 22.3 4.7 4.6 14.9 10.1 18.8 10.1 2.1 0 2.2-0.4 2.2-6.9 0-6.1-0.3-7-2-7.6-7.9-2.5-20.8-19.1-25.6-33-2.6-7.5-2.8-9.3-3.2-27.8l-0.4-19.7h-38.9-38.9z"/>
	</g>
</svg>